<?xml version="1.0" encoding="UTF-8"?>
<svg version="1.1" xmlns="http://www.w3.org/2000/svg" width="182" height="44">
<path d="M0 0 C5.50369896 5.45811967 8.12947338 9.22831766 8.4375 17.125 C8.36703893 22.87718541 7.52069598 26.57225727 3.96875 31.12109375 C-0.46260343 35.35022271 -5.888329 38.16814177 -12.0625 38.5625 C-19.53773766 37.49460891 -25.2024237 34.92904448 -29.84375 28.84375 C-33.10215766 23.64791076 -33.44155702 18.49315584 -32.6640625 12.5625 C-31.12119824 6.60885908 -27.66720691 1.6707619 -22.375 -1.5 C-14.78531688 -4.8731925 -7.07168964 -4.76570389 0 0 Z " fill="#FCD5C1" transform="translate(36,5)"/>
<path d="M0 0 C2.875 1.25 2.875 1.25 5 4 C7.66558014 12.21355796 6.90955478 19.71547003 5 28 C6.98 28.66 8.96 29.32 11 30 C2.36526706 37.154493 2.36526706 37.154493 -3.1875 37.375 C-5.0746875 37.189375 -5.0746875 37.189375 -7 37 C-7.66 36.01 -8.32 35.02 -9 34 C-8.34 34 -7.68 34 -7 34 C-8.01660441 31.26298813 -9.08396756 28.86436009 -10.625 26.375 C-12 24 -12 24 -12 21 C-11.01 20.34 -10.02 19.68 -9 19 C-9.66 18.67 -10.32 18.34 -11 18 C-11 17.01 -11 16.02 -11 15 C-11.99 14.67 -12.98 14.34 -14 14 C-14.4560284 8.29964499 -13.60412752 5.45215753 -10 1 C-6.77394374 -0.61302813 -3.49698284 -0.43628385 0 0 Z " fill="#B07E70" transform="translate(27,3)"/>
<path d="M0 0 C0 0.66 0 1.32 0 2 C0.53625 1.67 1.0725 1.34 1.625 1 C4.57217367 -0.24091523 6.82934784 -0.20678166 10 0 C10.66 0.33 11.32 0.66 12 1 C12.66 0.67 13.32 0.34 14 0 C17 -0.1875 17 -0.1875 20 0 C22 2 22 2 22.22705078 3.87939453 C22.21657715 4.62302246 22.20610352 5.36665039 22.1953125 6.1328125 C22.18886719 6.93847656 22.18242187 7.74414062 22.17578125 8.57421875 C22.15902344 9.41597656 22.14226562 10.25773437 22.125 11.125 C22.11597656 11.97449219 22.10695312 12.82398438 22.09765625 13.69921875 C22.07405647 15.79959884 22.03818483 17.89983444 22 20 C20.02 20 18.04 20 16 20 C16 15.05 16 10.1 16 5 C15.01 5.495 15.01 5.495 14 6 C13.52998967 9.27555608 13.52998967 9.27555608 13.375 13.0625 C13.30023438 14.35285156 13.22546875 15.64320312 13.1484375 16.97265625 C13.09945312 17.97167969 13.05046875 18.97070312 13 20 C10.69 20 8.38 20 6 20 C6 15.05 6 10.1 6 5 C5.01 5.495 5.01 5.495 4 6 C3.52998967 9.27555608 3.52998967 9.27555608 3.375 13.0625 C3.30023438 14.35285156 3.22546875 15.64320312 3.1484375 16.97265625 C3.09945312 17.97167969 3.05046875 18.97070312 3 20 C0.69 20 -1.62 20 -4 20 C-4.06058594 18.96359375 -4.12117188 17.9271875 -4.18359375 16.859375 C-4.26803371 15.48957127 -4.35267997 14.11978025 -4.4375 12.75 C-4.47681641 12.06808594 -4.51613281 11.38617188 -4.55664062 10.68359375 C-4.76666472 7.35551959 -5.01934002 4.19744598 -6 1 C-3 0 -3 0 0 0 Z " fill="#FEFEFE" transform="translate(112,13)"/>
<path d="M0 0 C1.98 0 3.96 0 6 0 C6.04898438 0.99902344 6.09796875 1.99804688 6.1484375 3.02734375 C6.22320312 4.31769531 6.29796875 5.60804687 6.375 6.9375 C6.44460937 8.22527344 6.51421875 9.51304688 6.5859375 10.83984375 C6.72257813 11.88269531 6.85921875 12.92554688 7 14 C7.66 14.33 8.32 14.66 9 15 C9.33 10.05 9.66 5.1 10 0 C12.31 0 14.62 0 17 0 C17.31389161 3.72684716 17.56847461 7.45547861 17.8125 11.1875 C17.90208984 12.24259766 17.99167969 13.29769531 18.08398438 14.38476562 C18.55261507 22.20349877 18.55261507 22.20349877 15.76953125 26.21484375 C11.6769609 28.85279107 9.78259933 28.46283219 5 28 C4.01 27.67 3.02 27.34 2 27 C2.33 25.02 2.66 23.04 3 21 C5.64 21 8.28 21 11 21 C11 20.34 11 19.68 11 19 C10.34 19.33 9.68 19.66 9 20 C5.5 20.25 5.5 20.25 2 20 C-0.03120707 16.95318939 -0.24659875 16.39881676 -0.1953125 12.98828125 C-0.18886719 12.23095703 -0.18242187 11.47363281 -0.17578125 10.69335938 C-0.15902344 9.90767578 -0.14226562 9.12199219 -0.125 8.3125 C-0.11597656 7.51521484 -0.10695312 6.71792969 -0.09765625 5.89648438 C-0.07411585 3.930861 -0.03824547 1.96539225 0 0 Z " fill="#FEFEFE" transform="translate(159,13)"/>
<path d="M0 0 C0.7734375 0.00644531 1.546875 0.01289063 2.34375 0.01953125 C4.5 0.1875 4.5 0.1875 7.5 1.1875 C7.56058594 2.23550781 7.62117188 3.28351562 7.68359375 4.36328125 C7.76801738 5.74220048 7.85266447 7.12110605 7.9375 8.5 C7.97681641 9.19029297 8.01613281 9.88058594 8.05664062 10.59179688 C8.24927415 13.65911535 8.52322717 16.25718152 9.5 19.1875 C6.44152152 19.73122951 3.61227195 20.1875 0.5 20.1875 C-0.634375 20.290625 -1.76875 20.39375 -2.9375 20.5 C-6.5 20.1875 -6.5 20.1875 -8.9375 18.1875 C-10.93976833 14.3431448 -11.22272321 11.43780078 -10.5 7.1875 C-8.18730029 2.12158636 -5.6297446 -0.10321198 0 0 Z M-2.5 5.1875 C-3.9783226 8.14414519 -3.56032783 10.92979737 -3.5 14.1875 C-2.51 14.5175 -1.52 14.8475 -0.5 15.1875 C0.64352916 12.90044169 0.60334439 11.59485238 0.5625 9.0625 C0.541875 7.78375 0.52125 6.505 0.5 5.1875 C-0.49 5.1875 -1.48 5.1875 -2.5 5.1875 Z " fill="#FEFEFE" transform="translate(75.5,12.8125)"/>
<path d="M0 0 C0.7734375 0.00644531 1.546875 0.01289063 2.34375 0.01953125 C4.5 0.1875 4.5 0.1875 7.5 1.1875 C7.56058594 2.23550781 7.62117188 3.28351562 7.68359375 4.36328125 C7.76801738 5.74220048 7.85266447 7.12110605 7.9375 8.5 C7.97681641 9.19029297 8.01613281 9.88058594 8.05664062 10.59179688 C8.24927415 13.65911535 8.52322717 16.25718152 9.5 19.1875 C6.44152152 19.73122951 3.61227195 20.1875 0.5 20.1875 C-0.634375 20.290625 -1.76875 20.39375 -2.9375 20.5 C-6.5 20.1875 -6.5 20.1875 -8.9375 18.1875 C-10.93976833 14.3431448 -11.22272321 11.43780078 -10.5 7.1875 C-8.18730029 2.12158636 -5.6297446 -0.10321198 0 0 Z M-2.5 5.1875 C-3.70561184 6.17017859 -3.70561184 6.17017859 -3.59765625 8.03515625 C-3.58605469 8.76605469 -3.57445312 9.49695313 -3.5625 10.25 C-3.541875 11.549375 -3.52125 12.84875 -3.5 14.1875 C-2.51 14.5175 -1.52 14.8475 -0.5 15.1875 C0.64352916 12.90044169 0.60334439 11.59485238 0.5625 9.0625 C0.541875 7.78375 0.52125 6.505 0.5 5.1875 C-0.49 5.1875 -1.48 5.1875 -2.5 5.1875 Z " fill="#FEFEFE" transform="translate(147.5,12.8125)"/>
<path d="M0 0 C0 0.66 0 1.32 0 2 C0.53625 1.67 1.0725 1.34 1.625 1 C4.65696965 -0.2766188 6.74003936 -0.41616519 10 0 C12.8253435 2.54809016 13.00350041 4.04648549 13.29296875 7.890625 C13.27314945 9.34404009 13.23754845 10.79731167 13.1875 12.25 C13.16719727 13.36761719 13.16719727 13.36761719 13.14648438 14.5078125 C13.11127204 16.33885416 13.05746851 18.16952169 13 20 C10.69 20 8.38 20 6 20 C6 15.05 6 10.1 6 5 C2.51009191 8.48990809 2.56737983 9.44673513 2.3125 14.1875 C2.24675781 15.27417969 2.18101563 16.36085938 2.11328125 17.48046875 C2.07589844 18.31191406 2.03851563 19.14335938 2 20 C0.02 20 -1.96 20 -4 20 C-4.06058594 19.04738281 -4.12117188 18.09476563 -4.18359375 17.11328125 C-4.26738281 15.85902344 -4.35117188 14.60476562 -4.4375 13.3125 C-4.51871094 12.07113281 -4.59992188 10.82976563 -4.68359375 9.55078125 C-4.94491317 6.61819663 -5.34798379 3.86558383 -6 1 C-3 0 -3 0 0 0 Z " fill="#FEFEFE" transform="translate(91,13)"/>
<path d="M0 0 C6.27 0 12.54 0 19 0 C19 1.65 19 3.3 19 5 C17.02 5 15.04 5 13 5 C13 11.93 13 18.86 13 26 C10.69 26 8.38 26 6 26 C6 19.07 6 12.14 6 5 C4.02 5 2.04 5 0 5 C0 3.35 0 1.7 0 0 Z " fill="#FFFFFF" transform="translate(48,7)"/>
<path d="M0 0 C0.66 0.33 1.32 0.66 2 1 C2 3.31 2 5.62 2 8 C2.66 8.33 3.32 8.66 4 9 C6 12 6 12 6 15 C5.01 15 4.02 15 3 15 C3.27714844 15.51949219 3.55429688 16.03898437 3.83984375 16.57421875 C5.80733267 20.36216005 7.46337389 23.70699113 8 28 C7.01 28.33 6.02 28.66 5 29 C2.7734375 27.85546875 2.7734375 27.85546875 0.375 26.1875 C-0.42164063 25.64480469 -1.21828125 25.10210937 -2.0390625 24.54296875 C-4 23 -4 23 -5 21 C-5.2037399 18.37757644 -5.32356725 15.81290797 -5.375 13.1875 C-5.41238281 12.47529297 -5.44976563 11.76308594 -5.48828125 11.02929688 C-5.55768701 6.86109534 -5.19124323 5.2282485 -2.4765625 1.98828125 C-1.25066406 1.00408203 -1.25066406 1.00408203 0 0 Z " fill="#FC9F69" transform="translate(12,9)"/>
<path d="M0 0 C5.47144686 1.33746479 5.47144686 1.33746479 7.6796875 4.10546875 C9.35592259 7.78029184 9.36412686 10.59810468 9.3125 14.625 C9.30863281 15.93726563 9.30476563 17.24953125 9.30078125 18.6015625 C9 22 9 22 7 25 C2.25 24.125 2.25 24.125 0 23 C0.08378906 22.09378906 0.16757812 21.18757813 0.25390625 20.25390625 C0.83554612 13.29631537 1.07121732 6.90340054 0 0 Z " fill="#FCB273" transform="translate(32,8)"/>
<path d="M0 0 C2.9375 1.3125 2.9375 1.3125 5 4 C5.70673196 7.66551278 5.92929748 11.27204873 6 15 C5.34 14.67 4.68 14.34 4 14 C3.66666667 12.66666667 3.33333333 11.33333333 3 10 C2.34 9.67 1.68 9.34 1 9 C1 8.34 1 7.68 1 7 C-0.6260287 7.06000106 -2.25101549 7.1487885 -3.875 7.25 C-4.77992187 7.29640625 -5.68484375 7.3428125 -6.6171875 7.390625 C-9.17110544 7.75611148 -9.17110544 7.75611148 -10.3203125 10.046875 C-10.54460938 10.69140625 -10.76890625 11.3359375 -11 12 C-11.66 12 -12.32 12 -13 12 C-13.75 9.875 -13.75 9.875 -14 7 C-10.35614147 0.4661847 -7.40682476 -0.93649508 0 0 Z " fill="#292221" transform="translate(27,3)"/>
<path d="M0 0 C3.3 0 6.6 0 10 0 C10 0.66 10 1.32 10 2 C10.66 2 11.32 2 12 2 C12 3.32 12 4.64 12 6 C10.68 6 9.36 6 8 6 C7.67 6.66 7.34 7.32 7 8 C3.7 7.67 0.4 7.34 -3 7 C-2.01 4.69 -1.02 2.38 0 0 Z " fill="#B78570" transform="translate(18,10)"/>
<path d="M0 0 C4.29 0 8.58 0 13 0 C11.73913043 5.04347826 11.73913043 5.04347826 9 7 C6.5625 7.5 6.5625 7.5 4 7 C0 2.89189189 0 2.89189189 0 0 Z " fill="#C08D79" transform="translate(17,26)"/>
<path d="M0 0 C-6.05271779 4.16744503 -10.51965687 7.202198 -18 6 C-18.66 5.01 -19.32 4.02 -20 3 C-18.0424015 2.49713066 -16.08389623 1.9977901 -14.125 1.5 C-13.03445312 1.2215625 -11.94390625 0.943125 -10.8203125 0.65625 C-8 0 -8 0 -6 0 C-3.50907189 -1.24546405 -2.58919267 -0.7767578 0 0 Z " fill="#866456" transform="translate(38,34)"/>
<path d="M0 0 C0.33 0.99 0.66 1.98 1 3 C3.00016466 4.20882096 3.00016466 4.20882096 5 5 C4.360625 5.12375 3.72125 5.2475 3.0625 5.375 C2.381875 5.58125 1.70125 5.7875 1 6 C0.67 6.66 0.34 7.32 0 8 C-0.99 7.67 -1.98 7.34 -3 7 C-3.99 7.495 -3.99 7.495 -5 8 C-6.99960012 8.039992 -9.00047242 8.04346799 -11 8 C-11.66 6.02 -12.32 4.04 -13 2 C-11.515 2.99 -11.515 2.99 -10 4 C-6.35934122 4.57484086 -5.24554062 4.17460666 -2.1875 2 C-1.465625 1.34 -0.74375 0.68 0 0 Z " fill="#5A4035" transform="translate(31,28)"/>
<path d="M0 0 C-2.96687001 1.64826111 -5.65626525 2.44271087 -9 3 C-9 3.66 -9 4.32 -9 5 C-8.401875 4.773125 -7.80375 4.54625 -7.1875 4.3125 C-6.1046875 4.1578125 -6.1046875 4.1578125 -5 4 C-3.25 5.4375 -3.25 5.4375 -2 7 C-3.11375 7.0825 -4.2275 7.165 -5.375 7.25 C-9.05753944 7.57873787 -9.05753944 7.57873787 -10.4375 10.0625 C-10.7159375 11.0215625 -10.7159375 11.0215625 -11 12 C-11.66 12 -12.32 12 -13 12 C-13.75 9.875 -13.75 9.875 -14 7 C-10.00898285 -0.15630662 -7.6263227 -0.1230052 0 0 Z " fill="#2E2D31" transform="translate(27,3)"/>
<path d="M0 0 C4.04505814 5.27616279 4.04505814 5.27616279 3.87890625 7.9453125 C3.5859375 9.96354167 3.29296875 11.98177083 3 14 C2.67 14 2.34 14 2 14 C2 11.36 2 8.72 2 6 C1.34 6.66 0.68 7.32 0 8 C0 8.33 0 8.66 0 9 C-2.375 9.125 -2.375 9.125 -5 9 C-7 7 -7 7 -8 4 C-5.36 3.67 -2.72 3.34 0 3 C0 2.01 0 1.02 0 0 Z " fill="#875845" transform="translate(30,13)"/>
<path d="M0 0 C1.32 0.33 2.64 0.66 4 1 C3.67 1.66 3.34 2.32 3 3 C4.65 3.33 6.3 3.66 8 4 C7.01 5.485 7.01 5.485 6 7 C2.7 6.67 -0.6 6.34 -4 6 C-3.67 5.34 -3.34 4.68 -3 4 C-2.01 4 -1.02 4 0 4 C0 2.68 0 1.36 0 0 Z " fill="#CDA28F" transform="translate(19,11)"/>
<path d="M0 0 C2 1 2 1 2 1 Z M-2 0 C-1.34 0.33 -0.68 0.66 0 1 C0 1.66 0 2.32 0 3 C0.99 2.67 1.98 2.34 3 2 C3 2.99 3 3.98 3 5 C-0.49234244 5.09978121 -3.59437148 4.77842938 -7 4 C-7 3.34 -7 2.68 -7 2 C-4.625 0.9375 -4.625 0.9375 -2 0 Z " fill="#161618" transform="translate(25,4)"/>
<path d="M0 0 C0.8971875 0.309375 0.8971875 0.309375 1.8125 0.625 C-4.36209517 4.87636061 -8.60121321 7.46792075 -16.1875 6.625 C-16.1875 6.295 -16.1875 5.965 -16.1875 5.625 C-15.47722656 5.50382812 -14.76695313 5.38265625 -14.03515625 5.2578125 C-13.11605469 5.09023438 -12.19695313 4.92265625 -11.25 4.75 C-10.33347656 4.58757813 -9.41695312 4.42515625 -8.47265625 4.2578125 C-7.71855469 4.04898438 -6.96445312 3.84015625 -6.1875 3.625 C-5.8575 2.965 -5.5275 2.305 -5.1875 1.625 C-2.1875 -0.375 -2.1875 -0.375 0 0 Z " fill="#A9846E" transform="translate(36.1875,33.375)"/>
<path d="M0 0 C0.33 0.99 0.66 1.98 1 3 C-5.625 7 -5.625 7 -9 7 C-9.66 5.02 -10.32 3.04 -11 1 C-9.515 1.99 -9.515 1.99 -8 3 C-5.5 3.41666667 -5.5 3.41666667 -3 3 C-1.18523997 1.60414215 -1.18523997 1.60414215 0 0 Z " fill="#704D42" transform="translate(29,29)"/>
<path d="M0 0 C0 2.97 0 5.94 0 9 C-0.99 9.495 -0.99 9.495 -2 10 C-2.103125 9.236875 -2.20625 8.47375 -2.3125 7.6875 C-3.04364039 4.82940576 -3.76951913 3.84257115 -6 2 C-2.25 0 -2.25 0 0 0 Z " fill="#B67E67" transform="translate(32,19)"/>
<path d="M0 0 C2.64 0.33 5.28 0.66 8 1 C8 2.32 8 3.64 8 5 C5.625 5.125 5.625 5.125 3 5 C1 3 1 3 0 0 Z " fill="#63463D" transform="translate(22,17)"/>
<path d="M0 0 C0.66 0.33 1.32 0.66 2 1 C2 2.32 2 3.64 2 5 C1.01 5.33 0.02 5.66 -1 6 C-3.1875 4.5625 -3.1875 4.5625 -5 3 C-2.625 1.4375 -2.625 1.4375 0 0 Z " fill="#B09B8E" transform="translate(18,32)"/>
<path d="M0 0 C0.99 0 1.98 0 3 0 C5 3 5 3 5 6 C3.68 6.33 2.36 6.66 1 7 C0.67 4.69 0.34 2.38 0 0 Z " fill="#C5A59E" transform="translate(13,18)"/>
<path d="M0 0 C-0.66 0.66 -1.32 1.32 -2 2 C-5.44165321 1.64700993 -7.06872538 0.95418308 -10 -1 C-5.94568308 -2.15837626 -3.78187881 -1.83691257 0 0 Z " fill="#965E50" transform="translate(31,24)"/>
<path d="M0 0 C2.64 0.66 5.28 1.32 8 2 C8 2.66 8 3.32 8 4 C5.03 3.67 2.06 3.34 -1 3 C-0.67 2.01 -0.34 1.02 0 0 Z " fill="#7B6660" transform="translate(14,15)"/>
<path d="M0 0 C0.33 0.66 0.66 1.32 1 2 C1.66 2.33 2.32 2.66 3 3 C1.68 3 0.36 3 -1 3 C-0.67 4.65 -0.34 6.3 0 8 C-3 4.375 -3 4.375 -3 1 C-2.01 0.67 -1.02 0.34 0 0 Z " fill="#96685C" transform="translate(18,23)"/>
<path d="M0 0 C2.97 0 5.94 0 9 0 C9 0.99 9 1.98 9 3 C2.84765625 2.4140625 2.84765625 2.4140625 1 2 C0.67 1.34 0.34 0.68 0 0 Z " fill="#D0A899" transform="translate(21,26)"/>
</svg>
